<?xml version="1.0" encoding="UTF-8" standalone="no"?>
<!-- Created with Inkscape (http://www.inkscape.org/) -->

<svg
   xmlns:dc="http://purl.org/dc/elements/1.1/"
   xmlns:cc="http://creativecommons.org/ns#"
   xmlns:rdf="http://www.w3.org/1999/02/22-rdf-syntax-ns#"
   xmlns:svg="http://www.w3.org/2000/svg"
   xmlns="http://www.w3.org/2000/svg"
   xmlns:xlink="http://www.w3.org/1999/xlink"
   xmlns:sodipodi="http://sodipodi.sourceforge.net/DTD/sodipodi-0.dtd"
   xmlns:inkscape="http://www.inkscape.org/namespaces/inkscape"
   width="42"
   height="9.9989157"
   id="svg2"
   sodipodi:version="0.32"
   inkscape:version="0.48.0 r9654"
   sodipodi:docname="status.svg"
   inkscape:export-filename="/Users/ssoberni/Documents/dev/nsf/library/lib/doc-assets/status.png"
   inkscape:export-xdpi="90.000000"
   inkscape:export-ydpi="90.000000"
   inkscape:output_extension="org.inkscape.output.svg.inkscape"
   version="1.0">
  <defs
     id="defs4">
    <linearGradient
       id="linearGradient1552">
      <stop
         style="stop-color:#f9cc84;stop-opacity:1.0000000;"
         offset="0.0000000"
         id="stop1554" />
      <stop
         style="stop-color:#fed27f;stop-opacity:1.0000000;"
         offset="1.0000000"
         id="stop1556" />
    </linearGradient>
    <linearGradient
       id="linearGradient1518">
      <stop
         id="stop1520"
         offset="0.0000000"
         style="stop-color:#f3ac39;stop-opacity:0.62876254;" />
      <stop
         id="stop1522"
         offset="1.0000000"
         style="stop-color:#fcba94;stop-opacity:0.78260869;" />
    </linearGradient>
    <linearGradient
       id="linearGradient1425">
      <stop
         id="stop1427"
         offset="0.0000000"
         style="stop-color:#f0d81f;stop-opacity:1.0000000;" />
      <stop
         id="stop1429"
         offset="1.0000000"
         style="stop-color:#f07d0a;stop-opacity:1.0000000;" />
    </linearGradient>
    <radialGradient
       inkscape:collect="always"
       xlink:href="#linearGradient1425"
       id="radialGradient1428"
       gradientUnits="userSpaceOnUse"
       gradientTransform="matrix(-0.131601,1.116951,-1.057619,-0.124616,33.35703,39.58492)"
       cx="-18.299662"
       cy="0.40529791"
       fx="-18.299662"
       fy="0.40529791"
       r="17.099951" />
    <linearGradient
       inkscape:collect="always"
       xlink:href="#linearGradient1552"
       id="linearGradient1427"
       gradientUnits="userSpaceOnUse"
       gradientTransform="matrix(0,1,-1,0,63.962,0.0077)"
       x1="36.312469"
       y1="47.962479"
       x2="30.301865"
       y2="16.23819" />
    <linearGradient
       inkscape:collect="always"
       xlink:href="#linearGradient1552"
       id="linearGradient1435"
       gradientUnits="userSpaceOnUse"
       gradientTransform="matrix(0,1,-1,0,64,-0.02652)"
       x1="32"
       y1="16.238235"
       x2="27.856573"
       y2="47.922497" />
    <linearGradient
       inkscape:collect="always"
       xlink:href="#linearGradient1518"
       id="linearGradient1440"
       gradientUnits="userSpaceOnUse"
       gradientTransform="matrix(0,1,-1,0,64,0)"
       x1="32"
       y1="16.238235"
       x2="27.856573"
       y2="47.922497" />
    <linearGradient
       y2="46.761806"
       x2="47.84375"
       y1="17.420588"
       x1="18.504625"
       gradientTransform="matrix(0.889325,0,0,0.889325,3.541593,3.5416)"
       gradientUnits="userSpaceOnUse"
       id="linearGradient1487"
       xlink:href="#linearGradient1378"
       inkscape:collect="always" />
    <linearGradient
       y2="46.761806"
       x2="47.84375"
       y1="17.420588"
       x1="18.504625"
       gradientTransform="matrix(0.889325,0,0,0.889325,-32.54864,2.451357)"
       gradientUnits="userSpaceOnUse"
       id="linearGradient1485"
       xlink:href="#linearGradient1365"
       inkscape:collect="always" />
    <linearGradient
       y2="48.9771"
       x2="40.305344"
       y1="13.745695"
       x1="20.152672"
       gradientTransform="matrix(0.889325,0,0,0.889325,3.5416,3.5416)"
       gradientUnits="userSpaceOnUse"
       id="linearGradient1483"
       xlink:href="#linearGradient1352"
       inkscape:collect="always" />
    <linearGradient
       id="linearGradient1352">
      <stop
         id="stop1354"
         offset="0.0000000"
         style="stop-color:#982007;stop-opacity:1.0000000;" />
      <stop
         id="stop1356"
         offset="1.0000000"
         style="stop-color:#510f02;stop-opacity:1.0000000;" />
    </linearGradient>
    <linearGradient
       id="linearGradient1365">
      <stop
         style="stop-color:#f1140c;stop-opacity:1.0000000;"
         offset="0.0000000"
         id="stop1367" />
      <stop
         style="stop-color:#8d1a02;stop-opacity:1.0000000;"
         offset="1.0000000"
         id="stop1370" />
    </linearGradient>
    <linearGradient
       id="linearGradient1378">
      <stop
         id="stop1380"
         offset="0.0000000"
         style="stop-color:#ff8b8e;stop-opacity:1.0000000;" />
      <stop
         id="stop1382"
         offset="1.0000000"
         style="stop-color:#b42314;stop-opacity:0.72240806;" />
    </linearGradient>
    <radialGradient
       r="17.099951"
       fy="7.0983443"
       fx="-15.475302"
       cy="7.0983443"
       cx="-15.475302"
       gradientTransform="matrix(-0.131601,1.116951,-1.057619,-0.124616,33.35703,39.58492)"
       gradientUnits="userSpaceOnUse"
       id="radialGradient1489"
       xlink:href="#linearGradient3630"
       inkscape:collect="always" />
    <linearGradient
       y2="50.929665"
       x2="45.964161"
       y1="10.692341"
       x1="22.040228"
       gradientTransform="matrix(0,1,1,0,0.9512,-2)"
       gradientUnits="userSpaceOnUse"
       id="linearGradient1487-5"
       xlink:href="#linearGradient2856"
       inkscape:collect="always" />
    <linearGradient
       y2="48.498569"
       x2="1.7526238"
       y1="16.376432"
       x1="1.6304866"
       gradientTransform="matrix(0,1,1,0,7.5625,30.4375)"
       gradientUnits="userSpaceOnUse"
       id="linearGradient1483-6"
       xlink:href="#linearGradient3702"
       inkscape:collect="always" />
    <linearGradient
       id="linearGradient2856">
      <stop
         id="stop2858"
         offset="0.0000000"
         style="stop-color:#3c44dc;stop-opacity:1.0000000;" />
      <stop
         id="stop2860"
         offset="1.0000000"
         style="stop-color:#0d1f6a;stop-opacity:1.0000000;" />
    </linearGradient>
    <linearGradient
       id="linearGradient3630">
      <stop
         style="stop-color:#d2d0f3;stop-opacity:1.0000000;"
         offset="0.0000000"
         id="stop3632" />
      <stop
         style="stop-color:#1c3db8;stop-opacity:1.0000000;"
         offset="1.0000000"
         id="stop3634" />
    </linearGradient>
    <linearGradient
       id="linearGradient3702">
      <stop
         id="stop3704"
         offset="0.0000000"
         style="stop-color:#ced1f2;stop-opacity:1.0000000;" />
      <stop
         id="stop3706"
         offset="1.0000000"
         style="stop-color:#1d42c9;stop-opacity:0.0000000;" />
    </linearGradient>
    <inkscape:perspective
       id="perspective24"
       inkscape:persp3d-origin="32 : 21.333333 : 1"
       inkscape:vp_z="64 : 32 : 1"
       inkscape:vp_y="0 : 1000 : 0"
       inkscape:vp_x="0 : 32 : 1"
       sodipodi:type="inkscape:persp3d" />
  </defs>
  <sodipodi:namedview
     id="base"
     pagecolor="#ffffff"
     bordercolor="#666666"
     borderopacity="1.0"
     inkscape:pageopacity="0.0"
     inkscape:pageshadow="2"
     inkscape:zoom="2.8284271"
     inkscape:cx="18.829055"
     inkscape:cy="-26.02994"
     inkscape:document-units="px"
     inkscape:current-layer="layer1"
     showgrid="false"
     inkscape:grid-bbox="true"
     inkscape:grid-points="true"
     inkscape:window-width="1156"
     inkscape:window-height="693"
     inkscape:window-x="179"
     inkscape:window-y="6"
     showguides="false"
     fit-margin-top="0"
     fit-margin-left="0"
     fit-margin-right="0"
     fit-margin-bottom="0"
     inkscape:window-maximized="0">
    <inkscape:grid
       id="GridFromPre046Settings"
       type="xygrid"
       originx="0px"
       originy="0px"
       spacingx="1px"
       spacingy="1px"
       color="#0000ff"
       empcolor="#0000ff"
       opacity="0.2"
       empopacity="0.4"
       empspacing="4"
       visible="true"
       enabled="true"
       snapvisiblegridlinesonly="true" />
  </sodipodi:namedview>
  <metadata
     id="metadata7">
    <rdf:RDF>
      <cc:Work
         rdf:about="">
        <dc:format>image/svg+xml</dc:format>
        <dc:type
           rdf:resource="http://purl.org/dc/dcmitype/StillImage" />
        <dc:title></dc:title>
        <dc:date>2005-11-01</dc:date>
        <dc:creator>
          <cc:Agent>
            <dc:title>Jean-Victor Balin</dc:title>
          </cc:Agent>
        </dc:creator>
        <dc:description>jean.victor.balin@gmail.com</dc:description>
        <cc:license
           rdf:resource="http://creativecommons.org/licenses/publicdomain/" />
        <dc:subject>
          <rdf:Bag>
            <rdf:li>icon</rdf:li>
            <rdf:li>arrow</rdf:li>
          </rdf:Bag>
        </dc:subject>
        <dc:language>fr-FR</dc:language>
      </cc:Work>
      <cc:License
         rdf:about="http://creativecommons.org/licenses/publicdomain/">
        <cc:permits
           rdf:resource="http://creativecommons.org/ns#Reproduction" />
        <cc:permits
           rdf:resource="http://creativecommons.org/ns#Distribution" />
        <cc:permits
           rdf:resource="http://creativecommons.org/ns#DerivativeWorks" />
      </cc:License>
    </rdf:RDF>
  </metadata>
  <g
     inkscape:label="Calque 1"
     inkscape:groupmode="layer"
     id="layer1"
     transform="translate(36.345545,-16.000216)">
    <g
       id="g1428"
       transform="matrix(0.27702671,0,0,0.27702671,-37.2104,12.134819)">
      <path
         sodipodi:nodetypes="ccccsccccsccccc"
         id="path2125"
         d="m 50,22 c 0,-1 -1,-1 -1,-1 0,0 -16.048801,0 -17,0 -0.0488,-1 0,-5 0,-5 -0.0091,-0.447249 -0.109074,-0.846408 -0.523002,-1.016051 -0.413928,-0.169642 -0.889064,-0.0774 -1.209447,0.234801 l -16,16 c -0.421803,0.435433 -0.421803,1.127067 0,1.5625 l 16,16 c 0.320383,0.312201 0.795519,0.404443 1.209447,0.234801 C 31.890926,48.846408 31.990867,48.447249 32,48 c 0,0 0,-4 0,-5 1,0 17.048801,0 17.048801,0 0,0 1,0 1,-1 C 50.048801,36 50,28 50,22 z"
         style="fill:#a54005;fill-opacity:1;stroke:none"
         inkscape:connector-curvature="0" />
      <path
         transform="matrix(0,1,-1,0,64,0)"
         style="fill:url(#radialGradient1428);fill-opacity:1;stroke:none"
         d="m 41.78125,15.15625 c -5.902981,0.0013 -13.64333,0.06118 -19.5625,0.0625 0,0.402615 0,15.842291 0,16.78125 0.001,0.649489 -0.507606,1.185602 -1.15625,1.21875 -1.093992,0.05339 -4.057579,0.0078 -4.625,0 L 32,48.78125 47.53125,33.21875 c -0.589245,3.7e-5 -3.6193,0 -4.53125,0 -0.673169,1.73e-4 -1.218923,-0.545581 -1.21875,-1.21875 0,-0.987179 0,-16.442222 0,-16.84375 z"
         id="path3636"
         inkscape:connector-curvature="0" />
      <path
         sodipodi:nodetypes="ccscccsc"
         id="path1511"
         d="M 47,41 C 48.03125,40.09375 48,24 47,23 46,22 32.889567,23.121549 32,23.09375 29,23 31,19 29,20 26,22 17,31 17,32 c 0,1 9,10 12,12 2,1 0,-3 3,-3.09375 0.93544,-0.02923 14.03125,1.1875 15,0.09375 z"
         style="fill:url(#linearGradient1440);fill-opacity:1;stroke:none"
         inkscape:connector-curvature="0" />
      <path
         sodipodi:nodetypes="ccccc"
         id="path1548"
         d="m 29,19.973471 c -3,2 -12,11 -12,12 C 17,32.973471 22.459068,39 25.50225,41 25.50225,40.026529 22,37 22,32 c 0,-4 9,-9 7,-12.026529 z"
         style="fill:url(#linearGradient1435);fill-opacity:1;stroke:none"
         inkscape:connector-curvature="0" />
      <path
         sodipodi:nodetypes="cscsccc"
         id="path1558"
         d="m 47.723759,32.034828 c -0.0039,-4.261719 -0.25,-8.53125 -0.75,-9.03125 -0.698149,-0.698149 -6.176054,-0.3999 -10.1875,-0.15625 C 34,23 34,23 37,24 c 10.47855,3.49285 8.315747,16.081582 7.942509,17.409828 1.007678,-0.06258 1.82658,-0.175171 2.03125,-0.40625 0.515625,-0.453125 0.753906,-4.707031 0.75,-8.96875 z"
         style="fill:url(#linearGradient1427);fill-opacity:1;stroke:none"
         inkscape:connector-curvature="0" />
    </g>
    <g
       id="layer1-7"
       inkscape:label="Calque 1"
       transform="matrix(0.30796197,0,0,0.30796197,-7.5808985,15.76432)">
      <g
         transform="translate(-15,-15)"
         id="g1478">
        <path
           style="fill:url(#linearGradient1483);fill-opacity:1;stroke:none"
           d="m 16.025098,21.211331 c -0.376011,0.453764 -0.341851,1.119896 0.0786,1.532816 L 25.359556,32 16.103703,41.255853 c -0.214998,0.212989 -0.335953,0.503074 -0.335953,0.805711 0,0.302637 0.120955,0.592721 0.335953,0.805711 l 5.030782,5.030782 c 0.212991,0.214998 0.503074,0.335953 0.805712,0.335953 0.302636,0 0.59272,-0.120955 0.80571,-0.335953 l 9.255853,-9.255852 9.255853,9.255852 c 0.21299,0.214998 0.503074,0.335953 0.805711,0.335953 0.302637,0 0.592721,-0.120955 0.805711,-0.335953 l 5.030782,-5.030782 c 0.214999,-0.21299 0.335954,-0.503074 0.335954,-0.805711 0,-0.302637 -0.120955,-0.592722 -0.335954,-0.805711 L 38.643965,32 47.899817,22.744147 c 0.214999,-0.212989 0.335954,-0.503074 0.335954,-0.80571 0,-0.302638 -0.120955,-0.592722 -0.335954,-0.805712 l -5.030782,-5.030782 c -0.21299,-0.214998 -0.503074,-0.335953 -0.805711,-0.335953 -0.302637,0 -0.592721,0.120955 -0.805711,0.335953 l -9.255853,9.255853 -9.255853,-9.255853 c -0.21299,-0.214998 -0.503074,-0.335953 -0.80571,-0.335953 -0.302638,0 -0.592721,0.120955 -0.805712,0.335953 l -5.030782,5.030782 c -0.02747,0.0249 -0.0537,0.05113 -0.0786,0.07861 z"
           id="path1349"
           inkscape:connector-curvature="0" />
        <path
           transform="translate(36.09375,1.103297)"
           style="fill:url(#linearGradient1485);fill-opacity:1;stroke:none"
           d="m -14.375,15.84375 c -0.179831,0.04723 -0.342448,0.144803 -0.46875,0.28125 l -4.03125,4.03125 c -0.377158,0.380743 -0.377158,0.994257 0,1.375 l 9.375,9.375 -9.375,9.375 c -0.377158,0.380743 -0.377158,0.994257 0,1.375 l 4.03125,4.03125 c 0.380743,0.377158 0.994257,0.377158 1.375,0 l 9.375,-9.375 9.375,9.375 c 0.3807433,0.377158 0.9942567,0.377158 1.375,0 l 4.03125,-4.03125 c 0.377158,-0.380743 0.377158,-0.994257 0,-1.375 l -9.375,-9.375 9.375,-9.375 c 0.377158,-0.380743 0.377158,-0.994257 0,-1.375 L 6.65625,16.125 c -0.3807433,-0.377158 -0.9942567,-0.377158 -1.375,0 l -9.375,9.375 -9.375,-9.375 c -0.23321,-0.244017 -0.575864,-0.350358 -0.90625,-0.28125 z"
           id="path1468"
           inkscape:connector-curvature="0" />
        <path
           style="fill:url(#linearGradient1487);fill-opacity:1;stroke:none"
           d="m 21.84375,17.65625 c -0.03546,0.01371 -0.06746,0.03504 -0.09375,0.0625 L 17.71875,21.75 c -0.03189,0.03516 -0.05351,0.0784 -0.0625,0.125 -0.01608,0.05084 -0.01608,0.105407 0,0.15625 0.01371,0.03546 0.03504,0.06746 0.0625,0.09375 l 9.5625,9.5625 c 0.0878,0.08375 0.15625,0.198401 0.15625,0.3125 0,0.114099 -0.06844,0.228747 -0.15625,0.3125 l -9.5625,9.5625 c -0.03189,0.03516 -0.05351,0.0784 -0.0625,0.125 -0.01608,0.05084 -0.01608,0.105407 0,0.15625 0.01371,0.03546 0.03504,0.06746 0.0625,0.09375 L 21.75,46.28125 c 0.03516,0.03189 0.0784,0.05351 0.125,0.0625 0.05084,0.01608 0.105407,0.01608 0.15625,0 0.03546,-0.01371 0.06746,-0.03504 0.09375,-0.0625 l 9.5625,-9.5625 C 31.77125,36.63094 31.885901,36.5625 32,36.5625 c 0.114096,-10e-7 0.228746,0.06844 0.3125,0.15625 l 9.5625,9.5625 c 0.03516,0.03189 0.0784,0.05351 0.125,0.0625 0.05084,0.01608 0.105407,0.01608 0.15625,0 0.03546,-0.01371 0.06746,-0.03504 0.09375,-0.0625 L 46.28125,42.25 c 0.03189,-0.03516 0.05351,-0.0784 0.0625,-0.125 0.01608,-0.05084 0.01608,-0.105407 0,-0.15625 -0.01371,-0.03546 -0.03504,-0.06746 -0.0625,-0.09375 l -9.5625,-9.5625 C 36.630945,32.228749 36.5625,32.114099 36.5625,32 c -10e-7,-0.114096 0.06844,-0.228746 0.15625,-0.3125 l 9.5625,-9.5625 c 0.03189,-0.03516 0.05351,-0.0784 0.0625,-0.125 0.01608,-0.05084 0.01608,-0.105407 0,-0.15625 C 46.33004,21.80829 46.30871,21.77629 46.28125,21.75 L 42.25,17.71875 c -0.03516,-0.03189 -0.0784,-0.05351 -0.125,-0.0625 -0.05084,-0.01608 -0.105407,-0.01608 -0.15625,0 -0.03546,0.01371 -0.06746,0.03504 -0.09375,0.0625 l -9.5625,9.5625 C 32.22875,27.36905 32.114099,27.4375 32,27.4375 c -0.114099,0 -0.228747,-0.06844 -0.3125,-0.15625 L 22.125,17.71875 C 22.08984,17.68686 22.0466,17.66524 22,17.65625 c -0.05084,-0.01608 -0.105407,-0.01608 -0.15625,0 z"
           id="path1472"
           inkscape:connector-curvature="0" />
      </g>
    </g>
    <g
       id="layer1-4"
       inkscape:label="Calque 1"
       transform="matrix(0.27702671,0,0,0.27702671,-20.609053,15.736166)">
      <g
         transform="translate(-12.999999,-13)"
         id="g2466">
        <path
           style="fill:url(#linearGradient1487-5);fill-opacity:1;stroke:none"
           d="m 14,22 c 0,-1 1,-1 1,-1 0,0 16.048801,0 17,0 0.0488,-1 0,-5 0,-5 0.0091,-0.447249 0.109074,-0.846408 0.523002,-1.016051 0.413928,-0.169642 0.889064,-0.0774 1.209447,0.234801 l 16,16 c 0.421803,0.435433 0.421803,1.127067 0,1.5625 l -16,16 C 33.412066,49.093451 32.93693,49.185693 32.523002,49.016051 32.109074,48.846408 32.009133,48.447249 32,48 c 0,0 0,-4 0,-5 -1,0 -17.048801,0 -17.048801,0 0,0 -1,0 -1,-1 0,-6 0.0488,-14 0.0488,-20 z"
           id="path2125-7"
           sodipodi:nodetypes="ccccsccccsccccc"
           inkscape:connector-curvature="0" />
        <path
           transform="matrix(0,1,1,0,0,2.110596e-7)"
           style="fill:url(#radialGradient1489);fill-opacity:1;stroke:none"
           d="m 41.78125,15.15625 c -5.902981,0.0013 -13.64333,0.06118 -19.5625,0.0625 0,0.402615 0,15.842291 0,16.78125 0.001,0.649489 -0.507606,1.185602 -1.15625,1.21875 -1.093992,0.05339 -4.057579,0.0078 -4.625,0 L 32,48.78125 47.53125,33.21875 c -0.589245,3.7e-5 -3.6193,0 -4.53125,0 -0.673169,1.73e-4 -1.218923,-0.545581 -1.21875,-1.21875 0,-0.987179 0,-16.442222 0,-16.84375 z"
           id="path3636-1"
           inkscape:connector-curvature="0" />
        <path
           style="fill:url(#linearGradient1483-6);fill-opacity:1;stroke:none"
           d="m 22.03125,23.21875 c 4.117314,0 9.205716,0.03699 9.75,0 C 35,23 33,19 35,20 37,21 47,32 47,32 L 35.9375,42.9375 C 33,35 28.723932,27.637964 22.03125,23.21875 z"
           id="path3696"
           sodipodi:nodetypes="cscccc"
           inkscape:connector-curvature="0" />
      </g>
    </g>
  </g>
</svg>
